<?xml version="1.0" encoding="iso-8859-1"?>
<!-- Uploaded to: SVG Repo, www.svgrepo.com, Generator: SVG Repo Mixer Tools -->
<svg fill="#000000" height="800px" width="800px" version="1.1" id="Layer_1" xmlns="http://www.w3.org/2000/svg" xmlns:xlink="http://www.w3.org/1999/xlink" 
	 viewBox="0 0 512.076 512.076" xml:space="preserve">
<g>
	<g>
		<g>
			<path d="M17.58,240.688c1.4,2.7,4.2,4.5,7.3,4.6c3.1,0.1,6-1.5,7.6-4.1c35.1-57.4,125-96,223.5-96c97.5,0,187.1,39.5,223.1,98.3
				c1.6,2.5,4.3,4.1,7.3,4.1c0.1,0,0.2,0,0.4,0c3.1-0.1,5.9-1.9,7.3-4.7l17.1-34.1c1.3-2.7,1.2-5.8-0.4-8.3
				c-34.8-56.9-133.4-100.7-234.7-106l19.7-19.7c3.6,1.3,7.4,2.1,11.4,2.1c18.8,0,34.1-15.3,34.1-34.1s-15.3-34.1-34.1-34.1
				c-18.8,0-34.1,15.3-34.1,34.1c0,8.5,3.2,16.2,8.4,22.2l-25.4,25.4l-25.5-25.5c5.2-6,8.4-13.7,8.4-22.2
				c0-18.8-15.3-34.1-34.1-34.1c-18.8,0-34.1,15.3-34.1,34.1c0,18.8,15.3,34.1,34.1,34.1c4,0,7.8-0.8,11.4-2.1l19.7,19.7
				c-101.3,5.2-199.8,49-234.7,106c-1.6,2.6-1.7,5.7-0.3,8.4L17.58,240.688z"/>
			<path d="M256.08,162.188c-141.2,0-256,91.9-256,204.8c0,75.3,61.3,136.5,136.5,136.5h238.9c75.3,0,136.5-61.3,136.5-136.5
				C512.08,254.088,397.28,162.188,256.08,162.188z"/>
		</g>
	</g>
</g>
</svg>